<svg width="24" height="24" viewBox="0 0 24 24" fill="none" xmlns="http://www.w3.org/2000/svg">
<path fill-rule="evenodd" clip-rule="evenodd" d="M20 12C20 16.4183 16.4183 20 12 20C7.58172 20 4 16.4183 4 12C4 7.58172 7.58172 4 12 4C16.4183 4 20 7.58172 20 12ZM10 12C10 12.5523 9.55228 13 9 13C8.44772 13 8 12.5523 8 12C8 11.4477 8.44772 11 9 11C9.55228 11 10 11.4477 10 12ZM16 12C16 12.5523 15.5523 13 15 13C14.4477 13 14 12.5523 14 12C14 11.4477 14.4477 11 15 11C15.5523 11 16 11.4477 16 12ZM9.5 14C9.5 13.7239 9.27614 13.5 9 13.5C8.72386 13.5 8.5 13.7239 8.5 14C8.5 14.7715 8.96904 15.4087 9.60133 15.8302C10.2371 16.2541 11.0866 16.5 12 16.5C12.9134 16.5 13.7629 16.2541 14.3987 15.8302C15.031 15.4087 15.5 14.7715 15.5 14C15.5 13.7239 15.2761 13.5 15 13.5C14.7239 13.5 14.5 13.7239 14.5 14C14.5 14.3331 14.2975 14.6959 13.844 14.9982C13.394 15.2982 12.7435 15.5 12 15.5C11.2565 15.5 10.606 15.2982 10.156 14.9982C9.70253 14.6959 9.5 14.3331 9.5 14Z" fill="black"/>
<path fill-rule="evenodd" clip-rule="evenodd" d="M22 12C22 17.5228 17.5228 22 12 22C6.47715 22 2 17.5228 2 12C2 6.47715 6.47715 2 12 2C17.5228 2 22 6.47715 22 12ZM21 12C21 16.9706 16.9706 21 12 21C7.02944 21 3 16.9706 3 12C3 7.02944 7.02944 3 12 3C16.9706 3 21 7.02944 21 12Z" fill="black"/>
</svg>
