<svg width="24" height="24" viewBox="0 0 24 24" fill="none" xmlns="http://www.w3.org/2000/svg">
<path fill-rule="evenodd" clip-rule="evenodd" d="M4 2C2.89543 2 2 2.89543 2 4V20C2 21.1046 2.89543 22 4 22H20C21.1046 22 22 21.1046 22 20V4C22 2.89543 21.1046 2 20 2H4ZM5.72973 6.75676C5.72973 7.23441 5.34252 7.62162 4.86486 7.62162C4.38721 7.62162 4 7.23441 4 6.75676C4 6.2791 4.38721 5.89189 4.86486 5.89189C5.34252 5.89189 5.72973 6.2791 5.72973 6.75676ZM6.95946 6.75676C6.95946 6.48061 7.18332 6.25676 7.45946 6.25676H19.5676C19.8437 6.25676 20.0676 6.48061 20.0676 6.75676C20.0676 7.0329 19.8437 7.25676 19.5676 7.25676H7.45946C7.18332 7.25676 6.95946 7.0329 6.95946 6.75676ZM6.95946 17.1351C6.95946 16.859 7.18332 16.6351 7.45946 16.6351H19.5676C19.8437 16.6351 20.0676 16.859 20.0676 17.1351C20.0676 17.4113 19.8437 17.6351 19.5676 17.6351H7.45946C7.18332 17.6351 6.95946 17.4113 6.95946 17.1351ZM7.45946 11.4459C7.18332 11.4459 6.95946 11.6698 6.95946 11.9459C6.95946 12.2221 7.18332 12.4459 7.45946 12.4459H19.5676C19.8437 12.4459 20.0676 12.2221 20.0676 11.9459C20.0676 11.6698 19.8437 11.4459 19.5676 11.4459H7.45946ZM4.86486 12.8108C5.34252 12.8108 5.72973 12.4236 5.72973 11.9459C5.72973 11.4683 5.34252 11.0811 4.86486 11.0811C4.38721 11.0811 4 11.4683 4 11.9459C4 12.4236 4.38721 12.8108 4.86486 12.8108ZM5.72973 17.1351C5.72973 17.6128 5.34252 18 4.86486 18C4.38721 18 4 17.6128 4 17.1351C4 16.6575 4.38721 16.2703 4.86486 16.2703C5.34252 16.2703 5.72973 16.6575 5.72973 17.1351Z" fill="black"/>
</svg>
