<svg width="24" height="24" viewBox="0 0 24 24" fill="none" xmlns="http://www.w3.org/2000/svg">
<path d="M6.5 10.6369V9.32184L5.62629 10.3048L5.11908 10.8754C4.95106 11.0644 4.70579 11.0644 4.53777 10.8754L3.0188 9.16652C2.82507 8.94858 2.81888 8.57428 3.00905 8.34736L6.08579 4.67606C9.65196 7.10874 14.3521 7.10798 17.9175 4.67379L21.0534 8.35035C21.2461 8.57625 21.2417 8.95339 21.0466 9.17294L19.5333 10.8754C19.3653 11.0644 19.12 11.0644 18.952 10.8754L18.3737 10.2248L17.5 9.24188V10.557V21C17.5 21.2761 17.2761 21.5 17 21.5H7C6.72386 21.5 6.5 21.2761 6.5 21V10.6369ZM13.8997 11.6264L13.714 12.0906L13.8997 11.6264C13.2033 11.3478 12.4699 11.5488 12 12.0257C11.5301 11.5488 10.7967 11.3478 10.1003 11.6264L10.2807 12.0774L10.1003 11.6264C8.93396 12.0929 8.6246 13.6001 9.51289 14.4883L10.9393 15.9148C11.5251 16.5006 12.4749 16.5006 13.0607 15.9148L14.4871 14.4883C15.3754 13.6001 15.066 12.0929 13.8997 11.6264Z" fill="black" stroke="black"/>
</svg>
