<svg width="24" height="24" viewBox="0 0 24 24" fill="none" xmlns="http://www.w3.org/2000/svg">
<mask id="path-1-inside-1_4_16" fill="white">
<path fill-rule="evenodd" clip-rule="evenodd" d="M6 10.6369L5.49279 11.2075C5.12587 11.6203 4.53098 11.6203 4.16406 11.2075L2.64509 9.49871C2.28579 9.09449 2.27726 8.44214 2.62583 8.0262L6 4C9.55556 6.66667 14.4444 6.66667 18 4L21.4338 8.02588C21.7879 8.44096 21.7818 9.09834 21.4203 9.50512L19.907 11.2075C19.5401 11.6203 18.9452 11.6203 18.5783 11.2075L18 10.557V21C18 21.5523 17.5523 22 17 22H7C6.44771 22 6 21.5523 6 21V10.6369Z"/>
</mask>
<path d="M5.49279 11.2075L4.74538 10.5432L5.49279 11.2075ZM6 10.6369H7V8.00674L5.25259 9.97257L6 10.6369ZM4.16406 11.2075L4.91147 10.5432L4.91147 10.5432L4.16406 11.2075ZM2.64509 9.49871L1.89769 10.1631L1.89769 10.1631L2.64509 9.49871ZM2.62583 8.0262L3.39227 8.66852H3.39227L2.62583 8.0262ZM6 4L6.6 3.2L5.84209 2.63156L5.23356 3.35768L6 4ZM18 4L18.7608 3.35105L18.1514 2.63649L17.4 3.2L18 4ZM21.4338 8.02588L20.673 8.67483L21.4338 8.02588ZM21.4203 9.50512L20.6729 8.84075V8.84075L21.4203 9.50512ZM19.907 11.2075L19.1596 10.5432V10.5432L19.907 11.2075ZM18.5783 11.2075L17.8309 11.8719L17.8309 11.8719L18.5783 11.2075ZM18 10.557L18.7474 9.89262L17 7.92678V10.557H18ZM6.2402 11.8719L6.74741 11.3013L5.25259 9.97257L4.74538 10.5432L6.2402 11.8719ZM3.41665 11.8719C4.18136 12.7322 5.47549 12.7322 6.2402 11.8719L4.74538 10.5432C4.7436 10.5452 4.74993 10.5377 4.76693 10.5299C4.78355 10.5224 4.80481 10.5171 4.82843 10.5171C4.85205 10.5171 4.87331 10.5224 4.88993 10.5299C4.90693 10.5377 4.91326 10.5452 4.91147 10.5432L3.41665 11.8719ZM1.89769 10.1631L3.41665 11.8719L4.91147 10.5432L3.3925 8.83434L1.89769 10.1631ZM1.85939 7.38389C1.194 8.17786 1.20722 9.3863 1.89769 10.1631L3.3925 8.83434C3.38808 8.82936 3.37057 8.8034 3.36992 8.75377C3.36927 8.70419 3.38611 8.67588 3.39227 8.66852L1.85939 7.38389ZM5.23356 3.35768L1.85939 7.38389L3.39227 8.66852L6.76644 4.64232L5.23356 3.35768ZM17.4 3.2C14.2 5.6 9.8 5.6 6.6 3.2L5.4 4.8C9.31111 7.73333 14.6889 7.73333 18.6 4.8L17.4 3.2ZM22.1947 7.37693L18.7608 3.35105L17.2392 4.64895L20.673 8.67483L22.1947 7.37693ZM22.1677 10.1695C22.8621 9.38825 22.8714 8.17037 22.1947 7.37693L20.673 8.67483C20.6787 8.68156 20.6959 8.70946 20.6955 8.75944C20.695 8.80946 20.6774 8.83569 20.6729 8.84075L22.1677 10.1695ZM20.6544 11.8719L22.1677 10.1695L20.6729 8.84075L19.1596 10.5432L20.6544 11.8719ZM17.8309 11.8719C18.5956 12.7322 19.8897 12.7322 20.6544 11.8719L19.1596 10.5432C19.1578 10.5452 19.1641 10.5377 19.1811 10.5299C19.1978 10.5224 19.219 10.5171 19.2426 10.5171C19.2663 10.5171 19.2875 10.5224 19.3041 10.5299C19.3211 10.5377 19.3275 10.5452 19.3257 10.5432L17.8309 11.8719ZM17.2526 11.2213L17.8309 11.8719L19.3257 10.5432L18.7474 9.89262L17.2526 11.2213ZM19 21V10.557H17V21H19ZM17 23C18.1046 23 19 22.1046 19 21H17V23ZM7 23H17V21H7V23ZM5 21C5 22.1046 5.89543 23 7 23V21H5ZM5 10.6369V21H7V10.6369H5Z" fill="black" mask="url(#path-1-inside-1_4_16)"/>
<path fill-rule="evenodd" clip-rule="evenodd" d="M9.86644 14.1348L11.2929 15.5612C11.6834 15.9518 12.3166 15.9518 12.7071 15.5612L14.1336 14.1348C14.768 13.5003 14.5471 12.4239 13.714 12.0906C12.893 11.7622 12 12.3668 12 13.251C12 12.3668 11.107 11.7622 10.286 12.0906C9.45294 12.4239 9.23198 13.5003 9.86644 14.1348Z" fill="black"/>
<path fill-rule="evenodd" clip-rule="evenodd" d="M7 8.00673L4.82843 10.4498L3.3925 8.83434C3.38808 8.82936 3.37057 8.8034 3.36992 8.75377C3.36927 8.70419 3.38611 8.67587 3.39227 8.66852L6.18415 5.33713C9.74236 7.55569 14.2656 7.55429 17.8226 5.33294L20.673 8.67483C20.6787 8.68156 20.6959 8.70946 20.6955 8.75944C20.695 8.80946 20.6774 8.83569 20.6729 8.84075L19.2426 10.4498L17 7.92678V21H7V8.00673ZM2.62583 8.0262L6 4C9.55555 6.66667 14.4444 6.66667 18 4L21.4338 8.02588C21.7879 8.44096 21.7818 9.09834 21.4203 9.50512L19.907 11.2075C19.6613 11.484 19.3133 11.5753 19 11.4815C18.8455 11.4352 18.6995 11.3439 18.5783 11.2075L18 10.557V21C18 21.5523 17.5523 22 17 22H7C6.44771 22 6 21.5523 6 21V10.6369L5.49279 11.2075C5.35316 11.3646 5.18052 11.4619 5 11.4995C4.70613 11.5606 4.39135 11.4632 4.16406 11.2075L2.64509 9.4987C2.28579 9.09449 2.27725 8.44214 2.62583 8.0262ZM11.2929 15.5612L9.86644 14.1348C9.23198 13.5003 9.45294 12.4239 10.286 12.0906C11.107 11.7622 12 12.3668 12 13.251C12 12.3668 12.893 11.7622 13.714 12.0906C14.5471 12.4239 14.768 13.5003 14.1336 14.1348L12.7071 15.5612C12.3166 15.9518 11.6834 15.9518 11.2929 15.5612Z" fill="black"/>
</svg>
