<svg width="24" height="24" viewBox="0 0 24 24" fill="none" xmlns="http://www.w3.org/2000/svg">
<path fill-rule="evenodd" clip-rule="evenodd" d="M12 11.4737C14.3319 11.4737 16.2222 9.58857 16.2222 7.26316C16.2222 4.93775 14.3319 3.05263 12 3.05263C9.66813 3.05263 7.77778 4.93775 7.77778 7.26316C7.77778 9.58857 9.66813 11.4737 12 11.4737ZM12 12.5263C14.9148 12.5263 17.2778 10.1699 17.2778 7.26316C17.2778 4.3564 14.9148 2 12 2C9.08516 2 6.72222 4.3564 6.72222 7.26316C6.72222 10.1699 9.08516 12.5263 12 12.5263Z" fill="black"/>
<path fill-rule="evenodd" clip-rule="evenodd" d="M16.7077 11.8275C16.5646 11.7041 16.4204 11.5861 16.275 11.4737C14.1111 14.1053 9.88889 14.1053 7.725 11.4737C7.5796 11.5861 7.43535 11.7041 7.29231 11.8275C7.16867 11.9342 7.04594 12.045 6.92413 12.1597C5.24429 13.7426 3.74119 16.0873 2.5 19.0022V22H21.5V19.0022C20.2588 16.0873 18.7557 13.7426 17.0759 12.1597C16.9541 12.045 16.8313 11.9342 16.7077 11.8275ZM16.3385 12.9131C13.892 15.029 10.108 15.029 7.66153 12.9131C6.15708 14.3262 4.75074 16.4639 3.55556 19.2183V20.9474H20.4444V19.2183C19.2493 16.4639 17.8429 14.3262 16.3385 12.9131Z" fill="black"/>
<path d="M10.4167 8.31579C10.4167 9.7193 13.5833 9.7193 13.5833 8.31579H10.4167Z" fill="black"/>
<path fill-rule="evenodd" clip-rule="evenodd" d="M9.88889 7.78947H14.1111V8.31579C14.1111 8.90049 13.7687 9.31512 13.3576 9.55805C12.9589 9.79369 12.4636 9.89474 12 9.89474C11.5364 9.89474 11.0411 9.79369 10.6424 9.55805C10.2313 9.31512 9.88889 8.90049 9.88889 8.31579V7.78947Z" fill="black"/>
<path d="M10.9444 6.73684C10.9444 7.02752 10.7082 7.26316 10.4167 7.26316C10.1252 7.26316 9.88889 7.02752 9.88889 6.73684C9.88889 6.44617 10.1252 6.21053 10.4167 6.21053C10.7082 6.21053 10.9444 6.44617 10.9444 6.73684Z" fill="black"/>
<path d="M14.1111 6.73684C14.1111 7.02752 13.8748 7.26316 13.5833 7.26316C13.2919 7.26316 13.0556 7.02752 13.0556 6.73684C13.0556 6.44617 13.2919 6.21053 13.5833 6.21053C13.8748 6.21053 14.1111 6.44617 14.1111 6.73684Z" fill="black"/>
</svg>
