<svg width="24" height="24" viewBox="0 0 24 24" fill="none" xmlns="http://www.w3.org/2000/svg">
<path d="M11.3662 8C11.4513 7.85291 11.5 7.68214 11.5 7.5C11.5 6.94771 11.0523 6.5 10.5 6.5C9.94771 6.5 9.5 6.94772 9.5 7.5C9.5 7.68214 9.5487 7.85291 9.63378 8H9.5V8.5V9C9.5 9.77919 9.96302 10.3164 10.4589 10.6103C10.9333 10.8914 11.4968 11 12 11C12.5032 11 13.0667 10.8914 13.5411 10.6103C14.037 10.3164 14.5 9.77919 14.5 9V8.5V8H14.3662C14.4513 7.85291 14.5 7.68214 14.5 7.5C14.5 6.94771 14.0523 6.5 13.5 6.5C12.9477 6.5 12.5 6.94771 12.5 7.5C12.5 7.68214 12.5487 7.85291 12.6338 8H11.3662ZM16.5 8C16.5 10.4853 14.4853 12.5 12 12.5C9.51472 12.5 7.5 10.4853 7.5 8C7.5 5.51472 9.51472 3.5 12 3.5C14.4853 3.5 16.5 5.51472 16.5 8ZM7.89703 12.6886C10.1073 14.9371 13.8927 14.9371 16.103 12.6886C17.7501 14.1024 19.2552 16.35 20.5 19.2543V21.5H3.5V19.2543C4.74478 16.35 6.24989 14.1024 7.89703 12.6886Z" fill="black" stroke="black"/>
</svg>
