<svg width="24" height="24" viewBox="0 0 24 24" fill="none" xmlns="http://www.w3.org/2000/svg">
<path fill-rule="evenodd" clip-rule="evenodd" d="M11.5 3C11.5 2.72386 11.7239 2.5 12 2.5C17.2467 2.5 21.5 6.75329 21.5 12C21.5 17.2467 17.2467 21.5 12 21.5C6.7533 21.5 2.5 17.2467 2.5 12C2.5 9.49436 3.73097 7.18026 5.29746 5.50403L2.99912 5.5C2.72298 5.49952 2.49952 5.27527 2.5 4.99912C2.50049 4.72298 2.72474 4.49952 3.00088 4.5L6.00087 4.50526C6.55316 4.50623 7.00009 4.95473 6.99912 5.50701L6.99298 9.00701C6.9925 9.28315 6.76825 9.50661 6.49211 9.50613C6.21597 9.50564 5.9925 9.28139 5.99298 9.00525L5.99787 6.21917C4.56869 7.7606 3.5 9.83038 3.5 12C3.5 16.6944 7.30558 20.5 12 20.5C16.6944 20.5 20.5 16.6944 20.5 12C20.5 7.30558 16.6944 3.5 12 3.5C11.7239 3.5 11.5 3.27614 11.5 3ZM11.993 5.5C12.2691 5.5 12.493 5.72386 12.493 6V11.5H16.993C17.2691 11.5 17.493 11.7239 17.493 12C17.493 12.2761 17.2691 12.5 16.993 12.5H11.493V6C11.493 5.72386 11.7168 5.5 11.993 5.5Z" fill="black"/>
</svg>
