<svg width="24" height="24" viewBox="0 0 24 24" fill="none" xmlns="http://www.w3.org/2000/svg">
<path fill-rule="evenodd" clip-rule="evenodd" d="M15.876 13.5405L14.9689 15.4674C16.1891 15.0319 17.7378 14.2143 19.2218 12.5029L19.2708 12.4464L19.3275 12.3979C20.3527 11.5215 21 10.222 21 8.77024C21 6.13571 18.8643 4 16.2298 4H10.7702C8.13571 4 6 6.13571 6 8.77024C6 11.4048 8.13571 13.5405 10.7702 13.5405H15.876ZM14.3919 16.6932C14.1009 16.7714 13.8437 16.8302 13.6285 16.8793C13.4274 16.9253 13.263 16.9628 13.1422 17L14.3 14.5405H10.7702C7.58342 14.5405 5 11.957 5 8.77024C5 5.58342 7.58342 3 10.7702 3H16.2298C19.4166 3 22 5.58342 22 8.77024C22 10.5266 21.2153 12.0997 19.9774 13.158C17.9464 15.5001 15.783 16.3192 14.3919 16.6932ZM3.99356 10.7779C2.79057 11.5931 2 12.9711 2 14.5338C2 16.5281 3.2877 18.2217 5.07701 18.8284C6.74072 20.0085 8.38919 20.4961 9.53873 20.7441C9.85816 20.8131 10.1391 20.8635 10.3711 20.9051C10.5722 20.9412 10.7369 20.9708 10.8578 21L9.7 19.0675H14.4662C16.8917 19.0675 18.8723 17.1629 18.9941 14.7677C18.5826 15.1632 18.1705 15.5067 17.7642 15.8056C17.2536 17.1288 15.9695 18.0675 14.4662 18.0675H7.93518L8.8104 19.5284C7.87342 19.2524 6.76805 18.8019 5.65556 18.0128L5.53644 17.9283L5.39814 17.8814C4.0023 17.4081 3 16.0867 3 14.5338C3 13.4081 3.5263 12.4054 4.34625 11.7583C4.20234 11.4447 4.0839 11.1171 3.99356 10.7779ZM13.5 9C13.7761 9 14 8.77614 14 8.5C14 8.22386 13.7761 8 13.5 8C13.2239 8 13 8.22386 13 8.5C13 8.77614 13.2239 9 13.5 9ZM11 8.5C11 8.77614 10.7761 9 10.5 9C10.2239 9 10 8.77614 10 8.5C10 8.22386 10.2239 8 10.5 8C10.7761 8 11 8.22386 11 8.5ZM16.5 9C16.7761 9 17 8.77614 17 8.5C17 8.22386 16.7761 8 16.5 8C16.2239 8 16 8.22386 16 8.5C16 8.77614 16.2239 9 16.5 9Z" fill="black"/>
</svg>
