<svg width="24" height="24" viewBox="0 0 24 24" fill="none" xmlns="http://www.w3.org/2000/svg">
<path fill-rule="evenodd" clip-rule="evenodd" d="M10.7702 3C7.58342 3 5 5.58342 5 8.77024C5 11.957 7.58342 14.5405 10.7702 14.5405H14.3L13.1422 17C13.263 16.9628 13.4274 16.9253 13.6284 16.8793C14.872 16.5953 17.5215 15.9901 19.9774 13.158C21.2153 12.0997 22 10.5266 22 8.77024C22 5.58342 19.4166 3 16.2298 3H10.7702ZM11 8.5C11 8.77614 10.7761 9 10.5 9C10.2239 9 10 8.77614 10 8.5C10 8.22386 10.2239 8 10.5 8C10.7761 8 11 8.22386 11 8.5ZM14 8.5C14 8.77614 13.7761 9 13.5 9C13.2239 9 13 8.77614 13 8.5C13 8.22386 13.2239 8 13.5 8C13.7761 8 14 8.22386 14 8.5ZM16.5 9C16.7761 9 17 8.77614 17 8.5C17 8.22386 16.7761 8 16.5 8C16.2239 8 16 8.22386 16 8.5C16 8.77614 16.2239 9 16.5 9Z" fill="black"/>
<path d="M2 14.5338C2 12.9711 2.79057 11.5931 3.99356 10.7779C4.0839 11.117 4.20234 11.4447 4.34625 11.7583C3.5263 12.4054 3 13.4081 3 14.5338C3 16.0867 4.0023 17.4081 5.39814 17.8814L5.53644 17.9283L5.65556 18.0128C6.76805 18.8019 7.87342 19.2524 8.8104 19.5284L7.93518 18.0675H14.4662C15.9695 18.0675 17.2536 17.1288 17.7642 15.8056C18.1705 15.5067 18.5826 15.1632 18.9941 14.7677C18.8723 17.1629 16.8917 19.0675 14.4662 19.0675H9.7L10.8578 21C10.7369 20.9708 10.5726 20.9413 10.3715 20.9052C10.1395 20.8636 9.85816 20.8131 9.53873 20.7441C8.38919 20.4961 6.74072 20.0085 5.07701 18.8284C3.2877 18.2217 2 16.5281 2 14.5338Z" fill="black"/>
</svg>
