<svg width="24" height="24" viewBox="0 0 24 24" fill="none" xmlns="http://www.w3.org/2000/svg">
<path d="M4.00468 12.4549L4.00519 12.4461L4.39605 12.5527C5.03267 12.7264 5.5 13.3093 5.5 14V16C5.5 16.8284 4.82843 17.5 4 17.5C3.17157 17.5 2.5 16.8284 2.5 16V14C2.5 13.2944 2.98761 12.7015 3.64484 12.5422L4.00468 12.4549ZM19.604 12.5527L19.9949 12.4461L19.9954 12.4549L20.3554 12.5422C21.0125 12.7017 21.5 13.2945 21.5 14V16C21.5 16.8284 20.8284 17.5 20 17.5H19.5L19.5 17.7324V17.444L19.2504 17.2996C18.8007 17.0395 18.5 16.5546 18.5 16V14C18.5 13.3092 18.9674 12.7263 19.604 12.5527ZM15.5607 20.2972L15.6544 20.5386L15.5938 20.5234L15.421 20.6197C15.2303 20.7259 14.8828 20.778 14.478 20.663C14.1612 20.573 13.9208 20.4112 13.7816 20.2479C13.6396 20.0814 13.6371 19.9634 13.6527 19.9086C13.6683 19.8539 13.7324 19.7549 13.9407 19.6879C14.145 19.6222 14.4346 19.611 14.7513 19.701C15.2138 19.8325 15.4857 20.1037 15.5607 20.2972Z" stroke="black"/>
</svg>
