<svg width="24" height="24" viewBox="0 0 24 24" fill="none" xmlns="http://www.w3.org/2000/svg">
<path fill-rule="evenodd" clip-rule="evenodd" d="M3.50001 3C3.222 3 3.00601 3.22556 3.01308 3.4893C3.17128 9.39221 4.7612 13.6678 7.6534 16.509C10.5471 19.3517 14.8221 20.8348 20.5114 20.987C20.7747 20.994 21 20.7785 21 20.5V16C21 15.7239 20.7761 15.5 20.5 15.5H15C14.7239 15.5 14.5 15.7239 14.5 16V17.5H14C12.3275 17.5 10.4602 16.5396 9.02977 15.1742C7.59604 13.8056 6.50001 11.9336 6.50001 10V9.5H8.00001C8.27615 9.5 8.50001 9.27614 8.50001 9V3.5C8.50001 3.22386 8.27615 3 8.00001 3H3.50001ZM2.01344 3.5161C1.99091 2.67567 2.67344 2 3.50001 2H8.00001C8.82843 2 9.50001 2.67157 9.50001 3.5V9C9.50001 9.82843 8.82843 10.5 8.00001 10.5H7.52993C7.69641 11.9076 8.54359 13.3277 9.72024 14.4508C10.8783 15.5562 12.2775 16.2997 13.5 16.4651V16C13.5 15.1716 14.1716 14.5 15 14.5H20.5C21.3284 14.5 22 15.1716 22 16V20.5C22 21.3261 21.3256 22.0091 20.4847 21.9866C14.6463 21.8305 10.0892 20.3036 6.95261 17.2224C3.81449 14.1396 2.17588 9.57727 2.01344 3.5161ZM13.5 3C13.5 2.72386 13.7239 2.5 14 2.5C15.6469 2.5 17.5052 3.31276 18.9416 4.48802C20.3711 5.65761 21.5 7.28539 21.5 9C21.5 9.27614 21.2761 9.5 21 9.5C20.7239 9.5 20.5 9.27614 20.5 9C20.5 7.71461 19.6289 6.34239 18.3084 5.26198C16.9948 4.18724 15.3531 3.5 14 3.5C13.7239 3.5 13.5 3.27614 13.5 3ZM14 4.5C13.7239 4.5 13.5 4.72386 13.5 5C13.5 5.27614 13.7239 5.5 14 5.5C14.9348 5.5 16.0809 5.94546 17.0001 6.64738C17.932 7.35898 18.5 8.22957 18.5 9C18.5 9.27614 18.7239 9.5 19 9.5C19.2761 9.5 19.5 9.27614 19.5 9C19.5 7.77043 18.6395 6.64102 17.607 5.85262C16.5619 5.05454 15.2081 4.5 14 4.5Z" fill="black"/>
</svg>
