<svg width="24" height="24" viewBox="0 0 24 24" fill="none" xmlns="http://www.w3.org/2000/svg">
<path d="M20.4981 21.4868C8.97032 21.1785 2.8339 15.4668 2.51325 3.5027C2.49845 2.95061 2.94771 2.5 3.5 2.5H8C8.55228 2.5 9 2.94772 9 3.5V9C9 9.55228 8.55228 10 8 10H7C7 13.5 11 17 14 17V16C14 15.4477 14.4477 15 15 15H20.5C21.0523 15 21.5 15.4477 21.5 16V20.5C21.5 21.0523 21.0502 21.5016 20.4981 21.4868Z" fill="black"/>
<path d="M13.5 3C13.5 2.72386 13.7239 2.5 14 2.5C15.6469 2.5 17.5052 3.31276 18.9416 4.48802C20.3711 5.65761 21.5 7.28539 21.5 9C21.5 9.27614 21.2761 9.5 21 9.5C20.7239 9.5 20.5 9.27614 20.5 9C20.5 7.71461 19.6289 6.34239 18.3084 5.26198C16.9948 4.18724 15.3531 3.5 14 3.5C13.7239 3.5 13.5 3.27614 13.5 3Z" fill="black"/>
<path d="M14 4.5C13.7239 4.5 13.5 4.72386 13.5 5C13.5 5.27614 13.7239 5.5 14 5.5C14.9348 5.5 16.0809 5.94546 17.0001 6.64738C17.932 7.35898 18.5 8.22957 18.5 9C18.5 9.27614 18.7239 9.5 19 9.5C19.2761 9.5 19.5 9.27614 19.5 9C19.5 7.77043 18.6395 6.64102 17.607 5.85262C16.5619 5.05454 15.2081 4.5 14 4.5Z" fill="black"/>
</svg>
