<svg width="24" height="24" viewBox="0 0 24 24" fill="none" xmlns="http://www.w3.org/2000/svg">
<path d="M4.52764 12.0703C4.8783 6.27835 8.50635 3.50683 12.001 3.50001C13.8597 3.49639 15.724 4.26625 17.1285 5.82582C18.3941 7.23122 19.3056 9.30123 19.4725 12.0703C18.6239 12.3017 18 13.078 18 14V16C18 16.7403 18.4022 17.3866 19 17.7324V18.9384C19 19.9143 18.0829 20.6303 17.1362 20.3937L16.0269 20.1163C15.8788 19.7346 15.4518 19.3803 14.888 19.2201C14.0911 18.9936 13.3227 19.2407 13.1718 19.772C13.0208 20.3032 13.5444 20.9175 14.3413 21.1439C14.8424 21.2863 15.3322 21.2415 15.6643 21.0565L16.8937 21.3638C18.4715 21.7583 20 20.5649 20 18.9384V18C21.1046 18 22 17.1046 22 16V14C22 13.0585 21.3495 12.269 20.4733 12.0563C20.3022 9.074 19.3189 6.76388 17.8715 5.15664C16.276 3.38484 14.1403 2.49584 11.999 2.50001C7.87795 2.50805 3.89105 5.79295 3.52701 12.0563C2.65072 12.2687 2 13.0584 2 14V16C2 17.1046 2.89543 18 4 18C5.10457 18 6 17.1046 6 16V14C6 13.0781 5.37619 12.3018 4.52764 12.0703Z" fill="black"/>
</svg>
