<svg width="24" height="24" viewBox="0 0 24 24" fill="none" xmlns="http://www.w3.org/2000/svg">
<path d="M9.54255 4.80013C9.73782 4.60486 10.0544 4.60486 10.2497 4.80013L10.9393 5.48981C11.5251 6.0756 12.4749 6.0756 13.0607 5.48981L13.7504 4.80013C13.9456 4.60486 14.2622 4.60486 14.4575 4.80013C14.6527 4.99539 14.6527 5.31197 14.4575 5.50723L13.7678 6.19692C13.7319 6.23276 13.6953 6.26728 13.6579 6.30049C17.5934 6.87754 20.7443 10.0269 21.231 14.0813L21.2633 14.3501C21.2979 14.6385 21.0922 14.9004 20.8038 14.935C20.5154 14.9696 20.2535 14.7639 20.2189 14.4755L20.1866 14.2067C19.7105 10.2416 16.3468 7.25758 12.3532 7.25758H11.5052C7.5117 7.25758 4.14795 10.2416 3.67189 14.2067L3.63961 14.4755C3.60498 14.7639 3.3431 14.9696 3.05469 14.935C2.76627 14.9004 2.56054 14.6385 2.59517 14.3501L2.62744 14.0813C3.11927 9.98491 6.3306 6.81243 10.3231 6.28339C10.2923 6.25547 10.262 6.22665 10.2322 6.19692L9.54255 5.50723C9.34729 5.31197 9.34729 4.99539 9.54255 4.80013Z" fill="black"/>
<path fill-rule="evenodd" clip-rule="evenodd" d="M12 7.7431C7.99972 7.7431 4.63206 10.736 4.16225 14.7085L4.15019 14.8105C4.12384 15.0334 4.06017 15.2502 3.96185 15.4519L2.17954 19.1086C1.532 20.4371 2.49943 21.9849 3.97736 21.9849H20.0226C21.5006 21.9849 22.468 20.4371 21.8205 19.1086L20.0381 15.4519C19.9398 15.2502 19.8762 15.0334 19.8498 14.8105L19.8377 14.7086C19.3679 10.736 16.0003 7.7431 12 7.7431ZM12.5 11.5C12.5 11.2239 12.2761 11 12 11C11.7239 11 11.5 11.2239 11.5 11.5V12C11.5 12.026 11.502 12.0515 11.5058 12.0764L11.4813 12.0836C10.693 12.3201 10 12.9828 10 14C10 14.5726 10.2975 14.9822 10.6487 15.2748C10.975 15.5467 11.394 15.7562 11.7492 15.9337L11.7764 15.9473C12.1656 16.1418 12.4833 16.3037 12.7112 16.4935C12.9225 16.6697 13 16.8226 13 17C13 17.4828 12.693 17.8201 12.2313 17.9586C11.755 18.1015 11.2044 17.9973 10.8535 17.6465C10.6583 17.4512 10.3417 17.4512 10.1464 17.6465C9.95118 17.8418 9.95119 18.1583 10.1465 18.3536C10.5266 18.7337 11.0096 18.9412 11.5 19.0014V19.5C11.5 19.7762 11.7239 20 12 20C12.2761 20 12.5 19.7762 12.5 19.5V19C12.5 18.9741 12.498 18.9485 12.4942 18.9236L12.5187 18.9164C13.307 18.6799 14 18.0173 14 17C14 16.4275 13.7025 16.0179 13.3513 15.7253C13.025 15.4534 12.606 15.2439 12.2508 15.0664L12.2236 15.0528C11.8344 14.8583 11.5167 14.6964 11.2888 14.5066C11.0775 14.3304 11 14.1775 11 14C11 13.5173 11.307 13.1799 11.7687 13.0414C12.245 12.8986 12.7956 13.0028 13.1464 13.3536C13.3417 13.5489 13.6583 13.5489 13.8536 13.3536C14.0488 13.1583 14.0488 12.8418 13.8536 12.6465C13.4734 12.2664 12.9904 12.0588 12.5 11.9987V11.5Z" fill="black"/>
</svg>
