<svg width="24" height="24" viewBox="0 0 24 24" fill="none" xmlns="http://www.w3.org/2000/svg">
<path d="M6.5 13V12.5H6H4.13504C3.71113 12.5 3.47955 12.0056 3.75093 11.6799L11.6159 2.24194C11.8158 2.00207 12.1842 2.00207 12.3841 2.24194L20.2491 11.6799C20.5205 12.0056 20.2889 12.5 19.865 12.5H18H17.5V13V21C17.5 21.2761 17.2761 21.5 17 21.5H15.0995C14.8233 21.5 14.5995 21.2761 14.5995 21V17.5C14.5995 16.6716 13.9279 16 13.0995 16H11.4254C10.597 16 9.92541 16.6716 9.92541 17.5V21C9.92541 21.2761 9.70155 21.5 9.42541 21.5H7C6.72386 21.5 6.5 21.2761 6.5 21V13Z" fill="black" stroke="black"/>
</svg>
