<svg width="24" height="24" viewBox="0 0 24 24" fill="none" xmlns="http://www.w3.org/2000/svg">
<path fill-rule="evenodd" clip-rule="evenodd" d="M7 12V21H9.42541V17.5C9.42541 16.3954 10.3208 15.5 11.4254 15.5H13.0995C14.204 15.5 15.0995 16.3954 15.0995 17.5V21H17V12H19.865L12 2.56204L4.13504 12H7ZM11.2318 1.92186L3.36682 11.3598C2.82405 12.0111 3.28721 13 4.13504 13H6V21C6 21.5523 6.44772 22 7 22H9.42541C9.97769 22 10.4254 21.5523 10.4254 21V17.5C10.4254 16.9477 10.8731 16.5 11.4254 16.5H13.0995C13.6517 16.5 14.0995 16.9477 14.0995 17.5V21C14.0995 21.5523 14.5472 22 15.0995 22H17C17.5523 22 18 21.5523 18 21V13H19.865C20.7128 13 21.176 12.0111 20.6332 11.3598L12.7682 1.92186C12.3684 1.4421 11.6316 1.4421 11.2318 1.92186Z" fill="black"/>
</svg>
